<svg width="141" height="40" viewBox="0 0 141 40" fill="none" xmlns="http://www.w3.org/2000/svg">
<path d="M12.332 6.49805C14.5807 6.49805 16.5573 7.01367 18.2617 8.04492C19.9661 9.06185 21.2839 10.5371 22.2148 12.4707C23.1602 14.39 23.6328 16.653 23.6328 19.2598C23.6328 21.8665 23.1602 24.1296 22.2148 26.0488C21.2839 27.9681 19.9661 29.4434 18.2617 30.4746C16.5573 31.4915 14.5807 32 12.332 32H5.11328C4.6263 32 4.27539 31.8926 4.06055 31.6777C3.86003 31.4486 3.75977 31.069 3.75977 30.5391V7.95898C3.75977 7.42904 3.86003 7.05664 4.06055 6.8418C4.27539 6.61263 4.6263 6.49805 5.11328 6.49805H12.332ZM6.98242 9.5918V28.9062H11.9238C13.6426 28.9062 15.125 28.5482 16.3711 27.832C17.6315 27.1016 18.6055 26.013 19.293 24.5664C19.9805 23.1198 20.3242 21.3509 20.3242 19.2598C20.3242 17.1686 19.9805 15.3997 19.293 13.9531C18.6055 12.5065 17.6315 11.418 16.3711 10.6875C15.125 9.95703 13.6426 9.5918 11.9238 9.5918H6.98242ZM37.5676 11.6758C39.6444 11.6758 41.4133 12.0983 42.8742 12.9434C44.3352 13.7741 45.4523 14.9271 46.2258 16.4023C47.0135 17.8776 47.4647 19.5892 47.5793 21.5371C47.6079 22.0098 47.5077 22.3535 47.2785 22.5684C47.0637 22.7689 46.7128 22.8691 46.2258 22.8691H30.6711C30.7714 25.0033 31.3729 26.6217 32.4758 27.7246C33.5786 28.8132 35.1327 29.3574 37.1379 29.3574C38.5702 29.3574 39.9667 29.1927 41.3273 28.8633C42.7023 28.5339 43.884 28.0827 44.8723 27.5098C45.1158 27.3809 45.3378 27.3164 45.5383 27.3164C45.8104 27.3164 46.0539 27.4238 46.2687 27.6387C46.4979 27.8392 46.677 28.1328 46.8059 28.5195C46.9061 28.7773 46.9562 29.0352 46.9562 29.293C46.9562 29.8659 46.6411 30.3027 46.0109 30.6035C44.8508 31.1621 43.4829 31.6133 41.9074 31.957C40.3319 32.3008 38.7421 32.4727 37.1379 32.4727C35.0611 32.4727 33.2922 32.0573 31.8312 31.2266C30.3703 30.3958 29.2603 29.1999 28.5012 27.6387C27.7421 26.0775 27.3625 24.2227 27.3625 22.0742C27.3625 20.026 27.7922 18.2142 28.6516 16.6387C29.5253 15.0632 30.7355 13.8457 32.2824 12.9863C33.8293 12.1126 35.591 11.6758 37.5676 11.6758ZM37.5676 14.791C35.7915 14.791 34.3234 15.2422 33.1633 16.1445C32.0031 17.0326 31.244 18.2715 30.8859 19.8613H44.0988C43.798 18.2285 43.0962 16.9753 41.9934 16.1016C40.9048 15.2279 39.4296 14.791 37.5676 14.791ZM69.3559 6.49805C69.8428 6.49805 70.1866 6.61979 70.3871 6.86328C70.602 7.09245 70.7094 7.48633 70.7094 8.04492C70.7094 8.60352 70.602 9.00456 70.3871 9.24805C70.1866 9.47721 69.8428 9.5918 69.3559 9.5918H56.852V18.1641H66.8852C67.3721 18.1641 67.7159 18.2858 67.9164 18.5293C68.1312 18.7585 68.2387 19.1523 68.2387 19.7109C68.2387 20.2695 68.1312 20.6706 67.9164 20.9141C67.7159 21.1432 67.3721 21.2578 66.8852 21.2578H56.852V30.8184C56.852 31.3197 56.7302 31.6777 56.4867 31.8926C56.2576 32.1074 55.8493 32.2148 55.2621 32.2148H55.2191C54.6319 32.2148 54.2165 32.1074 53.973 31.8926C53.7439 31.6777 53.6293 31.3197 53.6293 30.8184V7.95898C53.6293 7.42904 53.7367 7.05664 53.9516 6.8418C54.1807 6.61263 54.5245 6.49805 54.9828 6.49805H69.3559ZM85.8258 2.7168C86.6135 2.7168 87.1507 2.82422 87.4371 3.03906C87.7236 3.23958 87.8668 3.59766 87.8668 4.11328V6.90625C87.8668 7.42188 87.7236 7.78711 87.4371 8.00195C87.1507 8.20247 86.6135 8.30273 85.8258 8.30273C85.038 8.30273 84.5009 8.20247 84.2145 8.00195C83.928 7.78711 83.7848 7.42188 83.7848 6.90625V4.11328C83.7848 3.59766 83.928 3.23958 84.2145 3.03906C84.5009 2.82422 85.038 2.7168 85.8258 2.7168ZM86.5133 12.1484C87.0003 12.1484 87.344 12.263 87.5445 12.4922C87.7594 12.707 87.8668 13.0794 87.8668 13.6094V28.9062H94.7633C95.2503 28.9062 95.594 29.028 95.7945 29.2715C96.0094 29.5007 96.1168 29.8945 96.1168 30.4531C96.1168 31.0117 96.0094 31.4128 95.7945 31.6562C95.594 31.8854 95.2503 32 94.7633 32H77.9195C77.4326 32 77.0816 31.8854 76.8668 31.6562C76.6663 31.4128 76.566 31.0117 76.566 30.4531C76.566 29.8945 76.6663 29.5007 76.8668 29.2715C77.0816 29.028 77.4326 28.9062 77.9195 28.9062H84.6441V15.2422H79.2086C78.7216 15.2422 78.3707 15.1276 78.1559 14.8984C77.9553 14.6549 77.8551 14.2539 77.8551 13.6953C77.8551 13.1367 77.9553 12.7428 78.1559 12.5137C78.3707 12.2702 78.7216 12.1484 79.2086 12.1484H86.5133Z" fill="#C3C5CB"/>
<path d="M139.172 0H103.828C102.823 0 102 0.822641 102 1.82812V37.1719C102 38.1835 102.823 39 103.828 39H139.172C140.177 39 141 38.1835 141 37.1719V1.82812C141 0.822641 140.177 0 139.172 0ZM135.516 31.6875C135.516 32.6991 134.693 33.5156 133.688 33.5156H109.312C108.307 33.5156 107.484 32.6991 107.484 31.6875V7.3125C107.484 6.30702 108.307 5.48438 109.312 5.48438H133.688C134.693 5.48438 135.516 6.30702 135.516 7.3125V31.6875Z" fill="white"/>
<path d="M129.323 14.0506L126.363 15.6621C125.313 14.0222 123.466 13 121.5 13C119.534 13 117.687 14.0222 116.637 15.6621L113.677 14.0506L113 15.3L116.01 16.9399C115.798 17.5504 115.692 18.1893 115.692 18.8495C115.692 21.831 117.927 24.3015 120.795 24.6564V28H122.205V24.6564C125.073 24.3015 127.308 21.831 127.308 18.8495C127.308 18.1893 127.202 17.5504 126.99 16.9399L130 15.3L129.323 14.0506Z" fill="white"/>
</svg>
